<svg width="553" height="124" viewBox="0 0 553 124" fill="none" xmlns="http://www.w3.org/2000/svg">
<g filter="url(#filter0_d_3_11)">
<path d="M298.5 101.5C298.5 102.675 297.962 103.996 296.577 105.418C295.179 106.853 293.036 108.259 290.192 109.494C284.513 111.96 276.492 113.548 267.5 113.548C258.508 113.548 250.487 111.96 244.808 109.494C241.964 108.259 239.821 106.853 238.423 105.418C237.038 103.996 236.5 102.675 236.5 101.5C236.5 100.325 237.038 99.0045 238.423 97.5818C239.821 96.1474 241.964 94.7414 244.808 93.5064C250.487 91.04 258.508 89.4524 267.5 89.4524C276.492 89.4524 284.513 91.04 290.192 93.5064C293.036 94.7414 295.179 96.1474 296.577 97.5818C297.962 99.0045 298.5 100.325 298.5 101.5Z" fill="#A5C8A0" stroke="white" stroke-width="5"/>
<path d="M273.842 99.2974C272.253 106.662 261.747 106.662 260.158 99.2974L251.509 59.2268C250.568 54.8665 253.891 50.75 258.351 50.75L275.649 50.75C280.109 50.75 283.432 54.8665 282.491 59.2268L273.842 99.2974Z" fill="#9D9D9D"/>
<path d="M53.4432 58V7.6H87.8592V12.496H58.9872V30.136H79.0032V34.96H58.9872V53.104H88.1472V58H53.4432ZM92.4053 58L111.845 31.936L93.6293 7.6H100.253L115.301 27.832L130.205 7.6H136.685L118.469 32.008L137.909 58H131.213L115.085 36.04L98.8853 58H92.4053ZM144.428 58V7.6H165.236C168.5 7.6 171.332 8.224 173.732 9.472C176.132 10.672 177.98 12.4 179.276 14.656C180.62 16.864 181.292 19.48 181.292 22.504C181.292 25.48 180.62 28.096 179.276 30.352C177.98 32.608 176.132 34.36 173.732 35.608C171.332 36.808 168.5 37.408 165.236 37.408H149.972V58H144.428ZM149.972 32.656H164.588C168.092 32.656 170.828 31.744 172.796 29.92C174.764 28.096 175.748 25.624 175.748 22.504C175.748 19.384 174.764 16.936 172.796 15.16C170.828 13.384 168.092 12.496 164.588 12.496H149.972V32.656ZM191.537 58V7.6H225.953V12.496H197.081V30.136H217.097V34.96H197.081V53.104H226.241V58H191.537ZM236.115 58V7.6H256.779C259.995 7.6 262.803 8.224 265.203 9.472C267.603 10.672 269.475 12.352 270.819 14.512C272.163 16.672 272.835 19.216 272.835 22.144C272.835 25.504 271.899 28.384 270.027 30.784C268.155 33.136 265.587 34.792 262.323 35.752L273.051 58H266.931L256.707 36.472H241.659V58H236.115ZM241.659 31.864H256.347C259.659 31.864 262.299 31 264.267 29.272C266.283 27.496 267.291 25.144 267.291 22.216C267.291 19.24 266.283 16.888 264.267 15.16C262.299 13.384 259.659 12.496 256.347 12.496H241.659V31.864ZM282.66 58V7.6H288.204V58H282.66ZM300.943 58V7.6H335.359V12.496H306.487V30.136H326.503V34.96H306.487V53.104H335.647V58H300.943ZM345.521 58V7.6H351.281L380.801 49.36L380.657 7.6H385.913V58H380.873L350.633 15.304L350.777 58H345.521ZM422.004 58.792C418.404 58.792 415.044 58.144 411.924 56.848C408.852 55.504 406.14 53.656 403.788 51.304C401.436 48.904 399.612 46.144 398.316 43.024C397.02 39.856 396.372 36.448 396.372 32.8C396.372 29.152 397.02 25.768 398.316 22.648C399.612 19.48 401.436 16.72 403.788 14.368C406.14 11.968 408.852 10.12 411.924 8.824C415.044 7.48 418.404 6.808 422.004 6.808C424.5 6.808 426.876 7.144 429.132 7.816C431.436 8.44 433.596 9.376 435.612 10.624C437.628 11.824 439.428 13.312 441.012 15.088L437.34 18.904C435.468 16.648 433.164 14.92 430.428 13.72C427.74 12.472 424.932 11.848 422.004 11.848C419.172 11.848 416.532 12.376 414.084 13.432C411.636 14.488 409.5 15.976 407.676 17.896C405.9 19.816 404.508 22.048 403.5 24.592C402.492 27.088 401.988 29.824 401.988 32.8C401.988 35.728 402.492 38.464 403.5 41.008C404.508 43.552 405.9 45.784 407.676 47.704C409.5 49.624 411.636 51.112 414.084 52.168C416.532 53.224 419.172 53.752 422.004 53.752C424.932 53.752 427.74 53.128 430.428 51.88C433.164 50.632 435.468 48.904 437.34 46.696L441.012 50.512C439.428 52.288 437.628 53.8 435.612 55.048C433.596 56.248 431.436 57.184 429.132 57.856C426.876 58.48 424.5 58.792 422.004 58.792ZM450.99 58V7.6H485.406V12.496H456.534V30.136H476.55V34.96H456.534V53.104H485.694V58H450.99ZM56.3073 101V67.4H61.4433L72.6753 91.304L83.9073 67.4H89.0433V101H85.5393V71.768L72.6753 98.6L59.7633 71.672V101H56.3073ZM119.54 101.528C116.788 101.528 114.388 100.936 112.34 99.752C110.324 98.536 108.772 96.824 107.684 94.616C106.596 92.408 106.052 89.8 106.052 86.792V67.4H109.748V86.792C109.748 89.096 110.148 91.096 110.948 92.792C111.748 94.488 112.884 95.816 114.356 96.776C115.828 97.704 117.556 98.168 119.54 98.168C121.524 98.168 123.252 97.704 124.724 96.776C126.196 95.816 127.332 94.488 128.132 92.792C128.932 91.096 129.332 89.096 129.332 86.792V67.4H133.028V86.792C133.028 89.8 132.484 92.408 131.396 94.616C130.308 96.824 128.756 98.536 126.74 99.752C124.724 100.936 122.324 101.528 119.54 101.528ZM160.864 101.528C158.24 101.528 155.808 101.064 153.568 100.136C151.328 99.176 149.168 97.736 147.088 95.816L149.344 93.128C151.36 95.016 153.248 96.36 155.008 97.16C156.8 97.96 158.784 98.36 160.96 98.36C162.688 98.36 164.224 98.072 165.568 97.496C166.944 96.888 168.016 96.072 168.784 95.048C169.552 94.024 169.936 92.856 169.936 91.544C169.936 89.848 169.376 88.568 168.256 87.704C167.136 86.808 165.2 86.12 162.448 85.64L157.024 84.728C153.952 84.184 151.696 83.256 150.256 81.944C148.848 80.6 148.144 78.808 148.144 76.568C148.144 74.68 148.624 73.016 149.584 71.576C150.576 70.104 151.936 68.952 153.664 68.12C155.392 67.288 157.392 66.872 159.664 66.872C162.16 66.872 164.48 67.224 166.624 67.928C168.768 68.6 170.88 69.672 172.96 71.144L171.04 74.024C169.312 72.712 167.488 71.72 165.568 71.048C163.648 70.344 161.696 69.992 159.712 69.992C158.144 69.992 156.752 70.264 155.536 70.808C154.352 71.352 153.408 72.088 152.704 73.016C152.032 73.944 151.696 75 151.696 76.184C151.696 77.656 152.192 78.808 153.184 79.64C154.176 80.472 155.792 81.064 158.032 81.416L163.408 82.328C166.992 82.968 169.584 84.008 171.184 85.448C172.816 86.856 173.632 88.824 173.632 91.352C173.632 93.304 173.072 95.048 171.952 96.584C170.864 98.12 169.36 99.336 167.44 100.232C165.52 101.096 163.328 101.528 160.864 101.528ZM188.994 101V67.4H192.69V101H188.994ZM225.807 101.528C223.407 101.528 221.167 101.096 219.087 100.232C217.039 99.336 215.231 98.104 213.663 96.536C212.095 94.936 210.879 93.096 210.015 91.016C209.151 88.904 208.719 86.632 208.719 84.2C208.719 81.768 209.151 79.512 210.015 77.432C210.879 75.32 212.095 73.48 213.663 71.912C215.231 70.312 217.039 69.08 219.087 68.216C221.167 67.32 223.407 66.872 225.807 66.872C227.471 66.872 229.055 67.096 230.559 67.544C232.095 67.96 233.535 68.584 234.879 69.416C236.223 70.216 237.423 71.208 238.479 72.392L236.031 74.936C234.783 73.432 233.247 72.28 231.423 71.48C229.631 70.648 227.759 70.232 225.807 70.232C223.919 70.232 222.159 70.584 220.527 71.288C218.895 71.992 217.471 72.984 216.255 74.264C215.071 75.544 214.143 77.032 213.471 78.728C212.799 80.392 212.463 82.216 212.463 84.2C212.463 86.152 212.799 87.976 213.471 89.672C214.143 91.368 215.071 92.856 216.255 94.136C217.471 95.416 218.895 96.408 220.527 97.112C222.159 97.816 223.919 98.168 225.807 98.168C227.759 98.168 229.631 97.752 231.423 96.92C233.247 96.088 234.783 94.936 236.031 93.464L238.479 96.008C237.423 97.192 236.223 98.2 234.879 99.032C233.535 99.832 232.095 100.456 230.559 100.904C229.055 101.32 227.471 101.528 225.807 101.528ZM310.305 101.528C307.905 101.528 305.681 101.08 303.633 100.184C301.585 99.288 299.777 98.056 298.209 96.488C296.673 94.888 295.473 93.048 294.609 90.968C293.745 88.856 293.313 86.6 293.313 84.2C293.313 81.8 293.745 79.56 294.609 77.48C295.473 75.368 296.673 73.528 298.209 71.96C299.777 70.36 301.585 69.112 303.633 68.216C305.681 67.32 307.905 66.872 310.305 66.872C312.865 66.872 315.281 67.336 317.553 68.264C319.857 69.192 321.809 70.568 323.409 72.392L320.913 74.888C319.665 73.384 318.097 72.232 316.209 71.432C314.321 70.632 312.353 70.232 310.305 70.232C308.417 70.232 306.673 70.6 305.073 71.336C303.473 72.04 302.065 73.032 300.849 74.312C299.665 75.56 298.737 77.032 298.065 78.728C297.393 80.424 297.057 82.248 297.057 84.2C297.057 86.152 297.393 87.976 298.065 89.672C298.737 91.368 299.665 92.856 300.849 94.136C302.065 95.384 303.473 96.376 305.073 97.112C306.673 97.816 308.417 98.168 310.305 98.168C312.545 98.168 314.545 97.672 316.305 96.68C318.097 95.688 319.537 94.328 320.625 92.6C321.745 90.84 322.401 88.872 322.593 86.696H311.265V83.432H326.337V84.92C326.337 87.256 325.937 89.432 325.137 91.448C324.337 93.432 323.201 95.192 321.729 96.728C320.289 98.232 318.593 99.416 316.641 100.28C314.689 101.112 312.577 101.528 310.305 101.528ZM342.361 101V67.4H356.137C358.281 67.4 360.153 67.816 361.753 68.648C363.353 69.448 364.601 70.568 365.497 72.008C366.393 73.448 366.841 75.144 366.841 77.096C366.841 79.336 366.217 81.256 364.969 82.856C363.721 84.424 362.009 85.528 359.833 86.168L366.985 101H362.905L356.089 86.648H346.057V101H342.361ZM346.057 83.576H355.849C358.057 83.576 359.817 83 361.129 81.848C362.473 80.664 363.145 79.096 363.145 77.144C363.145 75.16 362.473 73.592 361.129 72.44C359.817 71.256 358.057 70.664 355.849 70.664H346.057V83.576ZM397.727 101.528C395.391 101.528 393.215 101.096 391.199 100.232C389.183 99.336 387.407 98.104 385.871 96.536C384.367 94.936 383.183 93.096 382.319 91.016C381.455 88.904 381.023 86.632 381.023 84.2C381.023 81.768 381.455 79.512 382.319 77.432C383.183 75.32 384.367 73.48 385.871 71.912C387.407 70.312 389.183 69.08 391.199 68.216C393.215 67.32 395.391 66.872 397.727 66.872C400.063 66.872 402.239 67.32 404.255 68.216C406.271 69.08 408.031 70.312 409.535 71.912C411.071 73.48 412.271 75.32 413.135 77.432C413.999 79.512 414.431 81.768 414.431 84.2C414.431 86.632 413.999 88.904 413.135 91.016C412.271 93.096 411.071 94.936 409.535 96.536C408.031 98.104 406.271 99.336 404.255 100.232C402.239 101.096 400.063 101.528 397.727 101.528ZM397.727 98.168C399.551 98.168 401.247 97.816 402.815 97.112C404.383 96.408 405.759 95.416 406.943 94.136C408.127 92.856 409.039 91.368 409.679 89.672C410.351 87.976 410.687 86.152 410.687 84.2C410.687 82.216 410.351 80.392 409.679 78.728C409.039 77.032 408.127 75.544 406.943 74.264C405.759 72.984 404.383 71.992 402.815 71.288C401.247 70.584 399.551 70.232 397.727 70.232C395.903 70.232 394.207 70.584 392.639 71.288C391.071 71.992 389.695 72.984 388.511 74.264C387.327 75.544 386.399 77.032 385.727 78.728C385.087 80.392 384.767 82.2 384.767 84.152C384.767 86.136 385.087 87.976 385.727 89.672C386.399 91.368 387.327 92.856 388.511 94.136C389.695 95.416 391.071 96.408 392.639 97.112C394.207 97.816 395.903 98.168 397.727 98.168ZM443.355 101.528C440.603 101.528 438.203 100.936 436.155 99.752C434.139 98.536 432.587 96.824 431.499 94.616C430.411 92.408 429.867 89.8 429.867 86.792V67.4H433.563V86.792C433.563 89.096 433.963 91.096 434.763 92.792C435.563 94.488 436.699 95.816 438.171 96.776C439.643 97.704 441.371 98.168 443.355 98.168C445.339 98.168 447.067 97.704 448.539 96.776C450.011 95.816 451.147 94.488 451.947 92.792C452.747 91.096 453.147 89.096 453.147 86.792V67.4H456.843V86.792C456.843 89.8 456.299 92.408 455.211 94.616C454.123 96.824 452.571 98.536 450.555 99.752C448.539 100.936 446.139 101.528 443.355 101.528ZM473.83 101V67.4H487.702C489.878 67.4 491.766 67.816 493.366 68.648C494.966 69.448 496.198 70.6 497.062 72.104C497.958 73.576 498.406 75.32 498.406 77.336C498.406 79.32 497.958 81.064 497.062 82.568C496.198 84.072 494.966 85.24 493.366 86.072C491.766 86.872 489.878 87.272 487.702 87.272H477.526V101H473.83ZM477.526 84.104H487.27C489.606 84.104 491.43 83.496 492.742 82.28C494.054 81.064 494.71 79.416 494.71 77.336C494.71 75.256 494.054 73.624 492.742 72.44C491.43 71.256 489.606 70.664 487.27 70.664H477.526V84.104Z" fill="black"/>
</g>
<defs>
<filter id="filter0_d_3_11" x="0" y="0" width="553" height="124.048" filterUnits="userSpaceOnUse" color-interpolation-filters="sRGB">
<feFlood flood-opacity="0" result="BackgroundImageFix"/>
<feColorMatrix in="SourceAlpha" type="matrix" values="0 0 0 0 0 0 0 0 0 0 0 0 0 0 0 0 0 0 127 0" result="hardAlpha"/>
<feOffset dy="4"/>
<feGaussianBlur stdDeviation="2"/>
<feComposite in2="hardAlpha" operator="out"/>
<feColorMatrix type="matrix" values="0 0 0 0 0 0 0 0 0 0 0 0 0 0 0 0 0 0 0.25 0"/>
<feBlend mode="normal" in2="BackgroundImageFix" result="effect1_dropShadow_3_11"/>
<feBlend mode="normal" in="SourceGraphic" in2="effect1_dropShadow_3_11" result="shape"/>
</filter>
</defs>
</svg>
